<mxfile host="app.diagrams.net" modified="2023-12-08T03:48:36.966Z" agent="Mozilla/5.0 (Macintosh; Intel Mac OS X 10_15_7) AppleWebKit/537.36 (KHTML, like Gecko) Chrome/119.0.0.0 Safari/537.36" version="22.1.7" etag="V8Cc3gPLpvcXs_wNxZye" type="github">
  <diagram name="페이지-1" id="FRPH0PJ3d5n6Ujvn2dCf">
    <mxGraphModel>
      <root>
        <mxCell id="0" />
        <mxCell id="1" parent="0" />
      </root>
    </mxGraphModel>
  </diagram>
</mxfile>
